<?xml version="1.0" standalone="no"?>
<!DOCTYPE svg PUBLIC "-//W3C//DTD SVG 20010904//EN" "http://www.w3.org/TR/2001/REC-SVG-20010904/DTD/svg10.dtd">
<svg version="1.0" xmlns="http://www.w3.org/2000/svg"
     width="270.000000pt" height="270.000000pt" viewBox="0 0 270.000000 270.000000" preserveAspectRatio="xMidYMid meet">
  <metadata>Created by potrace 1.11, written by Peter Selinger 2001-2013</metadata>
  <g transform="translate(0.000000,270.000000) scale(0.100000,-0.100000)" fill="#000000" stroke="none">
    <path d="M115 2686 c-38 -17 -90 -72 -104 -109 -15 -40 -15 -2414 0 -2454 12
            -34 64 -90 101 -109 40 -21 2436 -21 2476 0 31 16 84 71 101 103 8 16 11 359
            11 1233 0 1025 -2 1215 -14 1238 -19 37 -75 89 -109 101 -19 8 -406 11 -1230
            11 -984 -1 -1207 -3 -1232 -14z m2083 -541 c44 -9 114 -34 164 -59 l87 -43 3
            51 3 51 45 0 45 0 0 -220 0 -220 -45 0 -45 0 -3 102 -3 102 -38 31 c-87 68
            -242 120 -361 120 -76 0 -178 -24 -245 -56 -57 -28 -145 -112 -145 -137 0 -28
            80 -85 434 -307 196 -124 384 -249 416 -278 102 -92 139 -209 110 -354 -63
            -324 -473 -477 -825 -308 -44 21 -101 54 -127 74 -26 20 -49 36 -52 36 -3 0
            -6 -35 -8 -77 l-3 -78 -45 0 -45 0 -3 239 c-3 256 -1 266 47 266 43 0 51 -17
            51 -106 0 -45 3 -89 6 -98 8 -20 126 -116 184 -149 206 -117 481 -94 629 54
            59 59 61 74 15 119 -22 21 -174 122 -339 225 -471 295 -501 318 -552 420 -32
            61 -41 159 -23 247 51 266 341 418 668 353z m-1157 -29 c273 -58 443 -326 373
            -591 -43 -166 -192 -302 -371 -340 -45 -10 -132 -15 -260 -15 l-193 0 0 -250
            0 -250 79 0 c89 0 104 -9 99 -62 l-3 -33 -350 0 -350 0 -3 39 c-2 24 2 42 10
            47 7 5 48 9 91 9 l77 0 0 680 0 680 -74 0 c-98 0 -106 4 -106 49 0 21 3 41 7
            44 3 4 209 7 457 7 348 0 466 -4 517 -14z"/>
    <path d="M590 1650 l0 -382 213 4 c116 2 220 8 230 12 16 8 17 35 17 366 0
            276 -3 361 -12 367 -7 4 -111 9 -230 11 l-218 3 0 -381z"/>
  </g>
</svg>
