<?xml version="1.0"?>
<?xml-stylesheet type="text/css" href="../css/pasportaservo-svg.css"?>
<svg viewBox="0 0 190 190" preserveAspectRatio="none" xmlns="http://www.w3.org/2000/svg" xmlns:svg="http://www.w3.org/2000/svg">
  <metadata id="license"
            xmlns:rdf="http://www.w3.org/1999/02/22-rdf-syntax-ns#"
            xmlns:dc="http://purl.org/dc/elements/1.1/"
            xmlns:dct="http://purl.org/dc/terms/"
            xmlns:cc="http://creativecommons.org/ns#">
    <rdf:RDF>
      <cc:Work rdf:about="">
        <dc:format>image/svg+xml</dc:format>
        <dc:type rdf:resource="http://purl.org/dc/dcmitype/StillImage" />
        <cc:license rdf:resource="http://creativecommons.org/licenses/by/3.0/" />
      </cc:Work>
      <rdf:HTML>
        Work based on <span property="dct:title" rel="dct:type">Black glass to drink icon</span> made by <a href="http://www.freepik.com" title="Freepik" property="cc:attributionName" rel="cc:attributionURL">Freepik</a> from <a href="http://www.flaticon.com" title="Flaticon" rel="dct:source">www.flaticon.com</a>, licensed under <a rel="license" href="http://creativecommons.org/licenses/by/3.0/" title="Creative Commons BY 3.0">CC BY 3.0</a>.
      </rdf:HTML>
    </rdf:RDF>
  </metadata>
  <path class="place-anchor have-drink" fill="#494"
        d="m165.4531,46.13394c-2.74797,-8.23164 -8.09478,-14.28834 -15.47846,-17.50122c-9.8275,-4.2723 -21.46923,-2.76835 -29.70623,-0.67885c6.67152,-11.3837 17.13075,-24.95388 11.57355,-24.95388c-7.87851,0 -52.37288,0 -52.37288,0s-44.48797,0 -52.37182,0c-7.89076,0 16.52033,27.34689 16.52033,36.95772c0,9.61083 -12.27506,68.49461 -3.13148,79.70795c6.3189,7.75356 19.74823,9.25122 27.44138,9.44675c-0.18856,0.82825 -0.30947,1.68062 -0.30947,2.55814c0,4.41592 2.52159,8.21644 6.20384,10.19532c0.00639,2.33902 -0.01864,4.5129 -0.09588,6.05407l-0.13316,0c-0.01225,0.40836 -0.01864,0.82825 -0.02504,1.23084c0,21.08575 -23.60678,33.27883 -34.84263,37.87089c-2.41986,1.06572 -1.70503,2.13143 0.00639,2.13143c1.62141,0 36.98445,0 40.55218,0c0.19761,0 0.3622,0 0.3622,0c3.57359,0 38.9393,0 40.55484,0c1.72048,0 2.41986,-1.06572 0,-2.13143c-11.22626,-4.59207 -34.83358,-16.78567 -34.83358,-37.87089c-0.00639,-0.40259 -0.01864,-0.82196 -0.02503,-1.23084l-0.13902,0c-0.07138,-1.54064 -0.09642,-3.71506 -0.09002,-6.05407c3.67586,-1.97312 6.20384,-5.7794 6.20384,-10.19532c0,-0.88382 -0.12091,-1.72989 -0.30255,-2.55814c7.69209,-0.18294 21.11609,-1.68743 27.43446,-9.44675c2.17217,-2.66193 3.10698,-8.06389 3.31099,-14.81884c1.52872,0.19501 3.05744,0.31086 4.58564,0.31086c10.37294,0 20.47849,-4.34255 28.33198,-12.42164c11.88302,-12.25756 16.11604,-30.55348 10.77563,-46.6021zm-104.13534,71.63776c-1.62141,-0.42094 -3.59863,-1.072 -5.70315,-2.36313c-1.02749,-0.67046 -2.12903,-1.46831 -3.05425,-2.58278c-0.91297,-0.97451 -1.8627,-2.80766 -2.23716,-3.94677c-0.97156,-3.25848 -0.97795,-6.15158 -1.19101,-9.41583c-0.16992,-3.21024 -0.16406,-6.572 -0.12092,-10.03439c0.0554,-6.93423 0.53852,-14.30092 1.11379,-21.64613c0.5971,-7.34206 1.42645,-14.65686 2.37032,-21.51193c0.56621,-3.42884 1.10473,-6.73607 1.6246,-9.87871c0.6003,-2.60688 -0.03356,-5.26514 -0.94067,-7.68961c-1.85045,-4.89086 -4.67566,-8.65782 -6.62198,-11.17035c-1.94953,-2.5639 -3.21831,-3.93418 -3.21831,-3.93418s1.56547,1.03531 4.03806,3.19767c2.36127,2.25357 5.89171,5.44495 8.79416,10.57957c1.33696,2.54293 2.62439,5.85016 2.26858,9.55893c-0.18856,3.13057 -0.39949,6.4378 -0.6003,9.85459c-0.47034,6.85508 -0.96518,14.16358 -1.45735,21.47209c-0.56621,7.29069 -1.13562,14.58714 -1.66775,21.42387c-0.22904,3.39844 -0.45489,6.68732 -0.66529,9.80321c-0.1518,3.03254 -0.27218,6.16993 -0.0245,8.29507c0.49537,2.51568 1.60276,4.08673 3.15013,5.65148c1.51328,1.43739 3.19327,2.42447 4.61334,3.12481c2.86888,1.40698 4.7188,1.89396 4.7188,1.89396s-1.91224,0.1405 -5.18914,-0.68147zm83.35962,-34.43052c-6.5293,6.74237 -14.98308,9.43732 -23.28879,7.62828c-1.23736,-17.61707 -4.75928,-37.93222 -5.7676,-47.19918c5.09326,-2.18961 19.606,-6.69937 28.79645,-2.68289c3.78719,1.65964 6.37483,4.69585 7.90302,9.27271c3.77494,11.35959 0.77342,24.30229 -7.64308,32.98108z"/>
</svg>