<?xml version="1.0"?>
<?xml-stylesheet type="text/css" href="../css/pasportaservo-svg.css"?>
<svg viewBox="0 0 190 190" preserveAspectRatio="none" xmlns="http://www.w3.org/2000/svg" xmlns:svg="http://www.w3.org/2000/svg">
  <metadata id="license"
            xmlns:rdf="http://www.w3.org/1999/02/22-rdf-syntax-ns#"
            xmlns:dc="http://purl.org/dc/elements/1.1/"
            xmlns:dct="http://purl.org/dc/terms/"
            xmlns:cc="http://creativecommons.org/ns#">
    <rdf:RDF>
      <cc:Work rdf:about="">
        <dc:format>image/svg+xml</dc:format>
        <dc:type rdf:resource="http://purl.org/dc/dcmitype/StillImage" />
        <cc:license rdf:resource="http://creativecommons.org/licenses/by/3.0/" />
      </cc:Work>
      <rdf:HTML>
        Work based on <span property="dct:title" rel="dct:type">Footprints Pin icon</span> made by <a href="http://www.freepik.com" title="Freepik" property="cc:attributionName" rel="cc:attributionURL">Freepik</a> from <a href="http://www.flaticon.com" title="Flaticon" rel="dct:source">www.flaticon.com</a>, licensed under <a rel="license" href="http://creativecommons.org/licenses/by/3.0/" title="Creative Commons BY 3.0">CC BY 3.0</a>.
      </rdf:HTML>
    </rdf:RDF>
  </metadata>
  <path class="place-anchor tour-guide" fill="#494"
        d="m65.266232,49.944658c-0.791799,0.317375 -1.805314,-0.366844 -2.271095,-1.528467c-0.445517,-1.158941 -0.183571,-2.358411 0.608526,-2.661184c0.794779,-0.323037 1.807996,0.372804 2.268115,1.528467c0.45714,1.161623 0.180591,2.352451 -0.605546,2.661184zm3.982836,-2.646582c1.001595,-0.393068 1.345194,-1.912894 0.759913,-3.37729c-0.576341,-1.476018 -1.872067,-2.346789 -2.867999,-1.939118c-1.001595,0.390088 -1.345194,1.906933 -0.768555,3.38325c0.582302,1.467376 1.863425,2.334868 2.876641,1.933158zm12.743882,27.493635c-2.468971,-5.051481 -2.256493,-9.031635 -2.29434,-9.896445l-0.055429,-1.388703l0,-0.163009c0,-1.921536 1.881007,-3.587085 3.802543,-3.587085c1.353836,0 1.155961,0.733688 3.144548,0.424955c1.979945,-0.299793 4.975788,-4.326435 4.975788,-7.141986c0,-4.841984 -2.340829,-7.357443 -7.185792,-7.357443c0,0 -3.528676,0.22708 -4.722484,0.474722l-7.898918,1.592538c-4.533251,0.925901 -7.462341,5.339652 -6.545082,9.873201c0.451179,2.221627 3.289974,7.337179 3.540596,8.420129l4.317793,12.16158c0.582302,2.515459 1.027819,8.265762 1.484958,11.092935c0.992952,6.166616 5.860863,10.501991 10.886417,9.68963c5.028237,-0.797759 6.53346,-3.665758 6.117147,-10.89804c-1.485256,-9.549567 -7.095795,-8.25414 -9.567746,-13.296979zm-7.974611,-29.613344c1.20245,-0.279529 1.83124,-1.912894 1.417907,-3.654136c-0.410651,-1.735283 -1.706078,-2.92015 -2.902866,-2.64092c-1.196788,0.279529 -1.825578,1.918854 -1.409265,3.654136c0.407671,1.741243 1.700416,2.93505 2.894224,2.64092zm11.911256,-0.739648c2.017791,0 3.642216,-2.384635 3.642216,-5.32803c0,-2.940712 -1.627703,-5.32803 -3.642216,-5.32803c-2.006169,0 -3.639534,2.390297 -3.639534,5.32803c0,2.940712 1.633365,5.32803 3.639534,5.32803zm-6.65594,-0.541475c1.417907,-0.209497 2.337849,-2.049678 2.029413,-4.116938c-0.288171,-2.078882 -1.677172,-3.581125 -3.092099,-3.388912c-1.417907,0.197875 -2.323544,2.049678 -2.035076,4.116938c0.305455,2.078882 1.688496,3.589767 3.097761,3.388912zm36.583679,-9.200306c1.187848,0.282509 2.489235,-0.896697 2.888264,-2.634959c0.416313,-1.746905 -0.209497,-3.38325 -1.403305,-3.67142c-1.187848,-0.279529 -2.486553,0.902657 -2.899886,2.652542c-0.410651,1.734985 0.23006,3.37431 1.414927,3.653838zm2.265135,2.570888l-7.907858,-1.60714l-4.716822,-0.468762c-4.850626,0 -7.182812,2.506817 -7.182812,7.357443c0,2.821212 2.993161,6.839213 4.975788,7.141986c1.973985,0.308733 1.787731,-0.413333 3.144548,-0.413333c1.918854,0 3.796583,1.653629 3.796583,3.575463l0,0.171651l-0.043807,1.383041c-0.055429,0.86183 0.160029,4.833044 -2.302982,9.884823c-2.477613,5.042839 -8.082489,3.753074 -9.57311,13.302939c-0.416313,7.226619 1.083248,10.10028 6.120127,10.903702c5.022575,0.803719 9.890485,-3.528676 10.883437,-9.68665c0.45714,-2.841775 0.893717,-8.586117 1.476018,-11.113497l4.314813,-12.15562c0.253304,-1.071328 3.100741,-6.187178 3.552219,-8.420129c0.926199,-4.536529 -2.011533,-8.941935 -6.536142,-9.855916zm8.158182,-2.000507c-0.803719,-0.314395 -1.819618,0.369824 -2.279738,1.528467c-0.454159,1.161623 -0.183571,2.352451 0.614188,2.666846c0.789117,0.302773 1.802334,-0.372804 2.250533,-1.531447c0.46608,-1.155663 0.204133,-2.349173 -0.584984,-2.663866zm-5.651365,1.55201c1.004575,0.390088 2.282718,-0.474722 2.867999,-1.95372c0.579322,-1.458734 0.22708,-2.975579 -0.762893,-3.38325c-1.007257,-0.393068 -2.29732,0.483364 -2.882303,1.95372c-0.57962,1.464396 -0.22708,2.975579 0.777197,3.38325zm33.622702,23.228291c0,32.766534 -59.314301,128.999471 -59.314301,128.999471s-59.331586,-96.23264 -59.331586,-128.999471c0,-32.760872 26.565052,-59.319963 59.331586,-59.319963c32.763852,0 59.314301,26.55641 59.314301,59.319963zm-13.413499,-0.002682c0,-25.307173 -20.590649,-45.900802 -45.900802,-45.900802c-25.304193,0 -45.906464,20.590649 -45.906464,45.900802c0,25.307173 20.602271,45.909444 45.906464,45.909444c25.307471,-0.00596 45.900802,-20.602271 45.900802,-45.909444zm-36.889432,-26.09629c2.008851,0 3.639534,-2.390297 3.639534,-5.325348c0,-2.957997 -1.630385,-5.32803 -3.639534,-5.32803c-2.017791,0 -3.645196,2.373013 -3.645196,5.32803c-0.00596,2.937732 1.630385,5.325348 3.645196,5.325348zm6.647,-0.547435c1.417907,0.197875 2.797968,-1.31897 3.095079,-3.38325c0.294131,-2.07024 -0.614188,-3.90744 -2.026433,-4.105316c-1.412245,-0.209497 -2.794988,1.307348 -3.095079,3.37729c-0.293833,2.075902 0.605844,3.919063 2.026433,4.111276z"/>
</svg>