<?xml version="1.0"?>
<?xml-stylesheet type="text/css" href="../css/pasportaservo-svg.css"?>
<svg viewBox="0 0 190 190" preserveAspectRatio="none" xmlns="http://www.w3.org/2000/svg" xmlns:svg="http://www.w3.org/2000/svg">
  <!--Unicode Character 'BED' (U+1F6CF)-->
  <path class="place-condition" fill="#f71"
        d="m188.954254,118.174739l-4.726511,3.650186l-5.41824,-1.977265l0,-13.231842l-87.152638,55.361151l0,22.053179l-7.032137,5.171043l-7.14748,-4.410614l0,-22.813607l-66.863135,-34.676766l0,16.882029l-4.957115,2.585629l-4.611251,-3.498122l0,-77.414331l4.611251,-1.368792l4.957115,1.216729l0,6.387771q0.80699,-2.129329 1.959761,-3.498122q2.420886,-2.889649 6.225229,-4.106378l50.608414,-15.057044l-3.573658,-3.802358q8.646116,-11.40675 17.638013,-12.775542q8.300252,-1.216729 12.219855,0.912492l0,-32.547436l5.764023,-1.216729l87.498502,14.144443l0,104.030296l0.000002,0zm-1.03751,-1.064665l0,-102.205203l-85.999866,-14.296616l-4.380647,0.912601l86.691513,14.752808l0,103.421932l3.689,-2.585521l0.000001,-0.000001zm-11.989252,-56.12158l-29.627347,-14.600743q-4.726511,-0.912601 -8.876637,-0.912601q-3.804262,0 -7.14748,0.760536l-8.876637,3.193886l3.573739,-4.866914q-22.710389,-10.494258 -36.659402,-10.494258q-5.187719,0 -8.761458,1.824985q-5.418158,2.585629 -11.297524,9.429701q5.648762,6.844071 14.410138,9.277529q14.986606,4.106487 24.55489,3.498122l5.879365,-2.433457l-2.766751,3.041822q6.686355,4.866914 23.056254,10.646429q2.766751,1.064556 21.788139,5.171043q5.187719,-1.977157 14.294959,-6.387771q4.034782,-2.585629 6.455752,-7.148307l0.000001,-0.000002l-0.000001,0zm-23.286857,57.034181l0,-23.117844q0,-10.798494 -4.380647,-15.665408q-2.997354,-3.346058 -11.297605,-5.931579l-68.938156,-21.444815l-48.648736,15.057044q-3.458479,1.064556 -6.109887,5.323106q-2.65149,4.25855 -2.65149,8.973401l0,5.779407l66.863135,27.072265l0,-22.053179l7.14748,-3.041822l7.032137,2.585521l0,63.574016l60.98377,-37.110114l-0.000001,0.000001zm-62.482406,64.790744l0,-90.646282l-5.533501,-2.129221l-5.648843,2.433457l5.648843,1.672921l0,92.471374l5.533501,-3.80225l0,0.000001zm-12.796241,-61.292731l0,-5.323215l-67.785384,-27.680522l0,-22.205351l-3.919604,-1.064556l-3.227875,0.912492l3.227875,1.216729l0,22.813716l71.704989,31.330708l-0.000001,-0.000001l-0.000001,0zm-67.785384,21.749051l0,-16.273773l-3.919604,-1.672921l0,19.771786l3.919604,-1.825093l0,0.000001zm150.326773,-74.524682l-4.49599,3.041929l-7.147398,-2.737693l7.147398,1.064665l4.49599,-1.368901zm-48.302871,-15.817472l-4.49599,3.041929l-7.147398,-2.737693l7.147398,1.064665l4.49599,-1.368901z"/>
</svg>
