<?xml version="1.0"?>
<?xml-stylesheet type="text/css" href="../css/pasportaservo-svg.css"?>
<svg viewBox="0 0 190 190" preserveAspectRatio="none" xmlns="http://www.w3.org/2000/svg" xmlns:svg="http://www.w3.org/2000/svg">
  <!--Unicode Character 'NO SMOKING SYMBOL' (U+1F6AD)-->
  <path class="place-condition" fill="#f71"
        d="m189.031308,94.970882q0,38.566806 -27.682593,66.299019q-27.682593,27.732283 -66.149876,27.732283q-37.970378,0 -66.100256,-27.931046q-28.129879,-27.931116 -28.129879,-65.901423q0,-37.970307 27.931116,-66.050495q27.931046,-28.080188 65.901353,-28.080188q38.069759,0 66.149947,27.931046q28.080188,27.931116 28.080188,66.000805zm-16.202022,0.397666q0,-31.807617 -22.91145,-54.818448q-22.91138,-23.010832 -54.718996,-23.010832q-28.726307,0 -49.003662,17.195975l109.338682,109.438063q17.295427,-21.072546 17.295427,-48.804759zm-28.726307,60.235639l-109.736277,-109.438063q-17.195975,22.762308 -17.195975,49.202425q0,31.807617 23.110213,54.619615q23.110283,22.811999 54.9179,22.811999q28.030427,0 48.90414,-17.195975zm4.870594,-67.392352l-5.765166,0l0,-26.539498q0,-6.063309 -7.454857,-6.063309q-3.975952,0 -8.299809,3.08131q-4.323857,3.081381 -6.013619,3.081381q-3.280213,0 -3.280213,-3.081381q0,-0.993953 0.099452,-1.391548q2.882548,-2.882618 5.765095,-5.665714q2.087357,-2.783237 2.087357,-7.852523q0,-11.629713 -13.418785,-11.629713q-2.087428,0 -6.361523,1.192856q-0.596428,-1.391619 -3.379595,-5.566333q2.186738,-2.981999 9.244071,-2.981999q8.250118,0 14.51226,4.472928q7.057262,4.969975 7.057262,12.822498q0,3.08131 -2.484952,7.852452q0.79519,0 2.435262,-0.347905q1.640071,-0.347834 2.435262,-0.347834q9.14476,0 11.729094,7.454857q1.093404,3.180762 1.093404,3.677809l0,27.831665zm-12.822498,0l-6.659667,0q0.298143,-1.689833 0.298143,-3.379595q0,-1.391548 -0.198762,-2.683785q-7.554309,4.373547 -13.816451,4.373547q-7.057262,0 -12.325451,-3.975952q-5.665714,-4.274166 -5.665714,-11.132666q0,-3.975952 2.087357,-7.256095q-10.933833,-0.894572 -17.59357,-5.963928q-7.753071,-5.864547 -7.753071,-16.102571q0,-2.485023 1.590381,-9.542285q0.596357,-2.584404 5.616023,-7.156714q5.019595,-4.57238 7.504548,-4.57238q0.596428,0 2.087428,2.534643q1.491,2.534714 1.789143,3.528666q-6.063309,2.683785 -8.051285,5.367571q-2.28619,3.08131 -2.28619,9.641666q0,7.057333 4.423238,11.331499q4.423238,4.274095 11.48057,4.274095q0.994023,0 2.981999,-0.447286q1.987976,-0.447286 2.981929,-0.447286q4.075404,0 4.075404,3.478976q0,1.093404 -1.838904,3.8765q-1.838904,2.783237 -1.838904,6.361523q0,9.442904 11.132666,9.442904q4.969975,0 9.93988,-3.379524q4.969975,-3.379595 6.162761,-3.379595q3.8765,0 3.8765,2.882548l0,12.325522zm12.822498,22.066499l-5.665785,0l0,-17.394808l5.665785,0l0,17.394808zm-12.822498,0l-6.361523,0l0,-17.394808l6.361523,0l0,17.394808zm-13.418785,-5.466952l-12.126689,-11.828404l12.126689,0l0,11.828404zm-29.620878,5.367571l-60.931448,0l0,-17.295427l43.238497,0l17.692951,17.295427z"/>
</svg>
