<?xml version="1.0"?>
<?xml-stylesheet type="text/css" href="../css/pasportaservo-svg.css"?>
<svg viewBox="0 0 190 190" preserveAspectRatio="none" xmlns="http://www.w3.org/2000/svg" xmlns:svg="http://www.w3.org/2000/svg">
  <!--Unicode Character 'CIRCLED DIGIT ONE' (U+2460)-->
  <path class="place-condition" fill="#f71" stroke="#f71" stroke-width="2"
        d="m95,2.451742q24.729907,0 46.274109,12.472964q21.544203,12.472964 33.963181,33.963181q12.418901,21.49014 12.418901,46.220124q0,24.621935 -12.472887,46.112075q-12.472964,21.490217 -34.017167,33.909194q-21.544203,12.418978 -46.166138,12.418978q-24.621935,0 -46.166138,-12.418978q-21.544203,-12.418978 -34.017167,-33.909194q-12.472887,-21.49014 -12.472887,-46.112075q0,-24.729984 12.418901,-46.274109q12.418978,-21.544203 33.963181,-33.963181q21.544203,-12.418978 46.274109,-12.418978zm0,171.165703q32.181263,0 55.453321,-23.164086q23.272058,-23.164086 23.272058,-55.345349q0,-20.950282 -10.583074,-39.254718q-10.583151,-18.304513 -28.887587,-28.887587q-18.304513,-10.583074 -39.254718,-10.583074q-32.397283,0 -55.561369,23.217996q-23.164009,23.218072 -23.164009,55.507383q0,32.181263 23.272058,55.345349q23.272058,23.164086 55.453321,23.164086zm9.503203,-27.861702l-12.634921,0l0,-80.453233q-9.503203,8.855219 -25.377891,15.226704l0,-12.202957q21.70616,-10.583151 29.805501,-25.809855l8.207312,0l0,103.239342l-0.000001,-0.000001z"/>
</svg>
