<?xml version="1.0"?>
<?xml-stylesheet type="text/css" href="../css/pasportaservo-svg.css"?>
<svg viewBox="0 0 190 190" preserveAspectRatio="none" xmlns="http://www.w3.org/2000/svg" xmlns:svg="http://www.w3.org/2000/svg">
  <!--Unicode Character 'PAW PRINTS' (U+1F43E)-->
  <path class="place-condition" fill="#f71"
        d="m180.279557,113.266863q0,7.594126 -4.618009,13.033118q-4.925896,5.746879 -12.31474,5.746879q-11.493757,0 -11.493757,-13.135723q0,-7.594053 4.310196,-12.930514q4.515405,-5.746879 12.006853,-5.746879q12.109458,0 12.109458,13.033118zm-101.391287,-95.747086q0,6.567861 -3.283931,10.980661q-3.591817,4.925896 -9.95447,4.925896q-4.925896,0 -8.415036,-5.131178q-3.181326,-4.515405 -3.181326,-9.749115q0,-5.952161 3.591817,-10.672775q4.002309,-5.131178 9.749187,-5.131178q5.336314,0 8.620245,4.823291q2.873512,4.310123 2.873512,9.954397zm20.627171,22.577023q0,4.925896 -2.873439,9.851792q-3.386608,5.644274 -7.90194,5.644274q-4.823291,0 -8.517713,-4.156216q-3.694422,-4.156216 -3.694422,-9.082112q0,-4.618082 3.848329,-8.876903q3.848329,-4.25882 8.363807,-4.25882q4.412727,0 7.594053,3.232555q3.181326,3.232628 3.181326,7.645429zm48.848469,62.907779q0,6.054765 -4.207591,11.596435q-4.515332,5.849483 -10.467493,5.849483q-4.823291,0 -8.004545,-4.310196q-2.873512,-3.899631 -2.873512,-8.928132q0,-6.260048 3.899704,-11.596435q4.310123,-5.849483 10.262283,-5.849483q4.823291,0 8.107222,4.156216q3.283931,4.156216 3.283931,9.082112zm41.151738,43.409477q0,5.438992 -5.028501,10.313586q-5.028574,4.874594 -10.467566,4.874594q-4.618009,0 -7.748033,-3.130024q-3.129951,-3.129951 -3.129951,-7.74796q0,-6.157443 4.618009,-10.826755q4.618009,-4.669312 10.775379,-4.669312q4.823291,0 7.902013,3.181326q3.078649,3.181253 3.078649,8.004545zm-142.132607,-128.89428q0,5.644274 -2.770835,10.878057q-3.283931,6.259975 -8.415036,6.259975q-15.188252,0 -15.188252,-17.548523q0,-15.906558 12.417418,-15.906558q6.773071,0 10.467493,4.925896q3.489213,4.515405 3.489213,11.391153zm70.296623,101.801851q0,5.849483 -3.745724,9.697885q-3.745724,3.848329 -9.595208,3.848329q-8.722996,0 -8.722996,-11.698967q0,-5.952161 2.873439,-10.057074q3.181326,-4.618009 8.928205,-4.618009q1.74457,0 3.591817,0.923587q6.670466,3.283931 6.670466,11.904249zm-34.891764,-44.538346q0,7.183635 -6.106068,12.417418q-6.106068,5.233783 -13.494912,5.233783q0,0 -7.696731,-0.718378l-15.290784,-1.539361q-1.641965,-0.205209 -6.15737,0.615773q-4.925896,0.923587 -6.567861,0.923587q-5.849483,0 -9.64651,-3.899704q-3.797027,-3.899631 -3.797027,-9.851792q0,-9.749187 9.441228,-14.777688q2.257739,-0.923587 6.567861,-3.386535q3.078722,-2.155061 5.33646,-7.696731q2.668157,-6.15737 4.515332,-8.107149q3.694495,-3.7971 11.083339,-3.899704l2.668157,-0.102605q3.078722,0 6.567861,2.565553q1.436756,1.128869 2.873439,5.438992q2.052457,6.259975 11.391153,14.572479q8.312431,7.388844 8.312431,12.212063zm80.764189,98.312711q0,6.259975 -3.694422,10.775379q-4.002309,4.925896 -10.057074,4.925896q-2.873439,0 -8.415036,-3.078649q-7.388844,-4.104913 -8.415109,-4.515405q-3.283931,-1.334152 -10.41619,-2.66823q-7.132333,-1.334079 -10.518868,-2.668157q-13.751423,-5.336387 -13.751423,-18.882601q0,-7.799335 7.080957,-11.185871q5.644274,-2.360343 11.185871,-4.720687q6.259975,-2.770835 10.467566,-6.465257q1.231474,-1.128796 3.591817,-3.48914q1.436683,-1.334152 5.541597,-1.334152q12.31474,0 15.598671,10.57017q0.615701,2.052457 0.615701,8.209827q0,5.131178 1.949852,8.107222q2.976044,3.694422 6.054765,7.286239q3.181326,4.002309 3.181326,9.133414zm-138.643467,-128.586393q0,5.541597 -2.873439,9.338696q-3.181326,4.104913 -8.620318,4.104913q-5.952088,0 -9.646583,-5.233783q-3.283931,-4.720687 -3.283931,-10.878057q0,-4.925896 3.283931,-8.415036q3.283931,-3.489213 8.107222,-3.489213q4.925896,0 8.979507,4.771989q4.053611,4.771916 4.053611,9.80049z"/>
</svg>
