<?xml version="1.0" encoding="UTF-8" standalone="no"?>
<!-- Created with Inkscape (http://www.inkscape.org/) -->

<svg
   xmlns:dc="http://purl.org/dc/elements/1.1/"
   xmlns:cc="http://creativecommons.org/ns#"
   xmlns:rdf="http://www.w3.org/1999/02/22-rdf-syntax-ns#"
   xmlns:svg="http://www.w3.org/2000/svg"
   xmlns="http://www.w3.org/2000/svg"
   xmlns:sodipodi="http://sodipodi.sourceforge.net/DTD/sodipodi-0.dtd"
   xmlns:inkscape="http://www.inkscape.org/namespaces/inkscape"
   width="2000"
   height="450"
   id="svg2"
   version="1.1"
   inkscape:version="0.91 r13725"
   sodipodi:docname="pasportaservo_readme.svg">
  <defs
     id="defs4" />
  <sodipodi:namedview
     id="base"
     pagecolor="#ffffff"
     bordercolor="#666666"
     borderopacity="1.0"
     inkscape:pageopacity="0.0"
     inkscape:pageshadow="2"
     inkscape:zoom="0.6805"
     inkscape:cx="1000"
     inkscape:cy="223.80953"
     inkscape:document-units="px"
     inkscape:current-layer="layer1"
     showgrid="false"
     inkscape:window-width="1920"
     inkscape:window-height="1005"
     inkscape:window-x="-2"
     inkscape:window-y="-3"
     inkscape:window-maximized="1"
     inkscape:showpageshadow="false"
     fit-margin-top="0"
     fit-margin-left="0"
     fit-margin-right="0"
     fit-margin-bottom="0"
     units="px" />
  <metadata
     id="metadata7">
    <rdf:RDF>
      <cc:Work
         rdf:about="">
        <dc:format>image/svg+xml</dc:format>
        <dc:type
           rdf:resource="http://purl.org/dc/dcmitype/StillImage" />
        <dc:title></dc:title>
      </cc:Work>
    </rdf:RDF>
  </metadata>
  <g
     inkscape:label="Fondo"
     inkscape:groupmode="layer"
     id="layer1"
     transform="translate(0,287.41177)">
    <rect
       style="fill:#ff7711;fill-opacity:1;stroke:none"
       id="rect3217"
       width="2000"
       height="450"
       x="0"
       y="-287.41177"
       inkscape:export-xdpi="90"
       inkscape:export-ydpi="90" />
  </g>
  <g
     inkscape:groupmode="layer"
     id="layer2"
     inkscape:label="Calque"
     transform="translate(0,287.41177)">
    <g
       style="font-style:normal;font-variant:normal;font-weight:600;font-stretch:normal;font-size:62.14632797px;line-height:125%;font-family:'Geotica Three';-inkscape-font-specification:'Geotica Three Semi-Bold';text-align:center;letter-spacing:0px;word-spacing:0px;text-anchor:middle;fill:#ffffff;fill-opacity:1;stroke:none"
       id="text3988"
       transform="matrix(2.5102787,0,0,2.5102787,66.057713,-264.97039)">
      <path
         d="m 142.41823,98.504738 20.38399,0 0,-1.118634 -5.65531,0 0,-17.587411 10.93775,0 c 9.19766,0 15.288,-6.214633 15.288,-13.672192 0,-7.768291 -6.09034,-14.169363 -15.288,-14.169363 l -25.66643,0 0,1.118634 5.65531,0 0,44.310332 -5.65531,0 0,1.118634 z m 14.72868,-19.824679 0,-25.604287 10.93775,0 c 1.92654,0 3.72878,0.310732 5.34459,0.870049 l 0,23.926336 c -1.61581,0.559317 -3.41805,0.807902 -5.34459,0.807902 l -10.93775,0 z"
         id="path4165"
         inkscape:connector-curvature="0" />
      <path
         d="m 184.40418,90.736447 c 0,4.785267 3.04517,8.514047 9.50839,8.514047 3.60449,0 6.21463,-1.18078 7.89258,-3.04517 0.74576,-0.870049 1.24293,-1.802244 1.49152,-2.858731 1.05648,3.355901 3.79092,5.593169 7.33326,5.593169 4.47454,0 7.70615,-3.790926 7.70615,-8.514047 l -1.24293,0 c 0,3.72878 -2.23727,6.77395 -5.40673,7.333267 l 0,-18.146728 c 0,-8.203315 -4.78527,-12.86429 -12.24283,-12.86429 -6.21463,0 -12.67785,3.231609 -12.67785,7.084682 0,2.237267 1.80225,3.853072 3.91522,3.853072 1.98868,0 3.91522,-1.491512 3.91522,-3.72878 0,-1.926536 -1.80224,-3.666633 -2.73444,-4.412389 2.11298,-1.056488 4.84742,-1.677951 7.58185,-1.677951 1.18078,0 2.36156,0.124293 3.41805,0.435024 l 0,9.756974 c -0.12429,2.672292 -2.98302,4.350243 -6.83609,4.350243 l -2.36156,0 c -5.40674,0 -9.25981,2.920877 -9.25981,8.327608 z m 9.32195,7.395413 0,-14.604387 2.29942,0 c 1.74009,0 3.29375,-0.248585 4.53668,-0.807902 0.99434,-0.435025 1.74009,-1.056488 2.29941,-1.802244 l 0,8.886925 c 0,4.536682 -2.98302,8.327608 -9.01122,8.327608 l -0.12429,0 z"
         id="path4167"
         inkscape:connector-curvature="0" />
      <path
         d="m 220.60442,98.504738 1.24293,0 0,-4.536682 c 1.80224,1.926536 5.9039,5.282438 11.93209,5.282438 6.09034,0 11.68351,-3.480195 11.68351,-9.632681 0,-3.666633 -1.98868,-5.220292 -6.09034,-7.830437 l -13.36146,-8.576194 c -0.99434,-0.621463 -1.61581,-1.553658 -1.92654,-2.112975 1.92654,-2.175121 5.15815,-3.231609 8.4519,-3.231609 6.09034,0 9.3841,3.542341 9.94342,4.163804 l 0,4.536682 1.24292,0 0,-9.694827 -1.24292,0 0,3.418048 c -1.61581,-1.367219 -4.90956,-3.542341 -9.88127,-3.542341 -6.02819,0 -11.74566,3.169463 -11.74566,9.632681 0,3.72878 1.92654,5.158145 6.71181,8.203315 l 12.73999,8.141169 c 1.18078,0.745756 1.7401,1.553659 1.98869,1.988683 -1.98869,2.237268 -5.15815,3.418048 -8.51405,3.418048 -7.20897,0 -11.37278,-5.158145 -11.93209,-5.966048 l 0,-4.22595 -1.24293,0 0,10.564876 z"
         id="path4169"
         inkscape:connector-curvature="0" />
      <path
         d="m 248.46928,110.00181 0,1.11863 19.4518,0 0,-1.11863 -5.34459,0 0,-17.090242 c 0.43503,1.118634 1.05649,2.175122 1.98869,3.04517 2.05083,1.988683 4.90956,3.293756 8.20331,3.293756 6.64966,0 12.86429,-6.152487 12.86429,-16.468777 0,-8.762632 -4.59883,-16.033753 -12.67785,-16.033753 -3.29375,0 -6.09034,1.242927 -8.07902,3.293756 -1.05649,1.118634 -1.80224,2.36156 -2.29942,3.853072 l 0,-6.401072 -14.10721,0 0,1.118634 5.34458,0 0,41.389456 -5.34458,0 z m 14.10721,-21.999802 0,-9.13551 c 0.18644,-6.214633 4.2881,-10.9999 10.37844,-10.9999 1.11864,0 2.11298,0.186439 3.10732,0.435024 l 0,29.270921 c -1.05649,0.372878 -2.17512,0.559317 -3.29376,0.559317 -5.9039,0 -10.192,-4.536682 -10.192,-10.129852 z"
         id="path4171"
         inkscape:connector-curvature="0" />
      <path
         d="m 290.13451,82.968156 c 0,8.886925 7.5197,16.282338 16.77951,16.282338 9.19765,0 16.77951,-7.395413 16.77951,-16.282338 0,-8.700486 -7.58186,-16.220192 -16.77951,-16.220192 -9.25981,0 -16.77951,7.519706 -16.77951,16.220192 z m 9.19766,13.237168 0,-26.350043 c 2.23726,-1.242927 4.84741,-1.988683 7.58185,-1.988683 2.73444,0 5.34458,0.745756 7.644,2.050829 l 0,26.22575 c -2.29942,1.305073 -4.90956,1.988683 -7.644,1.988683 -2.73444,0 -5.34459,-0.68361 -7.58185,-1.926536 z"
         id="path4173"
         inkscape:connector-curvature="0" />
      <path
         d="m 325.56042,98.504738 19.4518,0 0,-1.118634 -5.34459,0 0,-16.406631 c 0,-3.853072 1.92654,-8.700486 4.84742,-11.248485 0.37288,1.677951 1.6158,5.033853 4.84741,5.033853 2.42371,0 4.10166,-1.802244 4.10166,-3.977365 0,-2.237268 -1.7401,-4.039512 -4.53668,-4.039512 -2.73444,0 -5.15815,1.677951 -7.02254,4.101658 -1.05649,1.367219 -1.7401,2.920877 -2.23727,4.536682 l 0,-7.892584 -14.10721,0 0,1.118634 5.34458,0 0,28.77375 -5.34458,0 0,1.118634 z"
         id="path4175"
         inkscape:connector-curvature="0" />
      <path
         d="m 360.4811,90.239276 c 0,4.90956 3.3559,8.700486 8.5762,8.700486 4.53668,0 8.14116,-3.790926 8.14116,-8.514047 l -1.24292,0 c 0,4.039512 -3.04517,7.333267 -6.71181,7.395413 l 0,-29.208774 8.32761,0 0,-1.118634 -8.32761,0 0,-11.745656 -8.76263,6.338926 0,5.40673 -5.77961,0 0,1.118634 5.77961,0 0,21.626922 z"
         id="path4177"
         inkscape:connector-curvature="0" />
      <path
         d="m 380.91767,90.736447 c 0,4.785267 3.04517,8.514047 9.50839,8.514047 3.60448,0 6.21463,-1.18078 7.89258,-3.04517 0.74576,-0.870049 1.24293,-1.802244 1.49151,-2.858731 1.05649,3.355901 3.79093,5.593169 7.33327,5.593169 4.47453,0 7.70614,-3.790926 7.70614,-8.514047 l -1.24292,0 c 0,3.72878 -2.23727,6.77395 -5.40673,7.333267 l 0,-18.146728 c 0,-8.203315 -4.78527,-12.86429 -12.24283,-12.86429 -6.21463,0 -12.67785,3.231609 -12.67785,7.084682 0,2.237267 1.80224,3.853072 3.91522,3.853072 1.98868,0 3.91522,-1.491512 3.91522,-3.72878 0,-1.926536 -1.80225,-3.666633 -2.73444,-4.412389 2.11297,-1.056488 4.84741,-1.677951 7.58185,-1.677951 1.18078,0 2.36156,0.124293 3.41805,0.435024 l 0,9.756974 c -0.1243,2.672292 -2.98303,4.350243 -6.8361,4.350243 l -2.36156,0 c -5.40673,0 -9.2598,2.920877 -9.2598,8.327608 z m 9.32195,7.395413 0,-14.604387 2.29941,0 c 1.7401,0 3.29376,-0.248585 4.53668,-0.807902 0.99434,-0.435025 1.7401,-1.056488 2.29942,-1.802244 l 0,8.886925 c 0,4.536682 -2.98303,8.327608 -9.01122,8.327608 l -0.12429,0 z"
         id="path4179"
         inkscape:connector-curvature="0" />
      <path
         d="m 434.6286,98.504738 1.24292,0 0,-6.401072 c 2.23727,2.361561 7.89259,7.146828 15.97161,7.146828 8.07902,0 15.53658,-4.90956 15.53658,-13.485753 0,-5.158146 -2.67229,-7.519706 -7.39541,-10.564876 L 440.47035,62.708453 c -2.29941,-1.491512 -2.98302,-2.734438 -3.16946,-3.293755 2.23727,-4.723121 7.45756,-7.084682 13.29931,-7.084682 8.20332,0 12.67785,4.598828 13.29932,5.282438 l 0,5.903901 1.24292,0 0,-12.056387 -1.24292,0 0,4.474535 c -1.92654,-1.677951 -6.40107,-4.723121 -13.29932,-4.723121 -8.26546,0 -15.59872,4.474536 -15.59872,13.361461 0,4.536682 1.92653,7.022535 7.39541,10.502729 l 19.51395,12.367119 c 2.11297,1.36722 2.85873,2.796585 3.10731,3.418049 -2.23727,4.72312 -7.58185,7.27112 -13.23717,7.27112 -9.50838,0 -15.35014,-7.022535 -15.90946,-7.768291 l 0,-5.468877 -1.24292,0 0,13.610046 z"
         id="path4181"
         inkscape:connector-curvature="0" />
      <path
         d="m 481.76855,96.640348 0,-14.72868 20.63258,0 c -0.55932,-8.389754 -6.27678,-15.163704 -14.4801,-15.163704 -8.57619,0 -15.41229,7.271121 -15.41229,16.220192 0,8.824778 6.52537,16.282338 15.66088,16.282338 10.0677,0 13.29931,-9.13551 13.29931,-9.13551 l -1.11863,-0.372878 c 0,0 -2.98303,8.389754 -12.18068,8.389754 -2.36156,0 -4.53668,-0.559317 -6.40107,-1.491512 z m 0,-15.847314 0,-11.434924 c 1.86439,-0.932195 3.91521,-1.491512 6.15248,-1.491512 1.61581,0 3.10732,0.310732 4.53668,0.807902 l 0,12.118534 -10.68916,0 z"
         id="path4183"
         inkscape:connector-curvature="0" />
      <path
         d="m 505.50359,98.504738 19.4518,0 0,-1.118634 -5.34458,0 0,-16.406631 c 0,-3.853072 1.92654,-8.700486 4.84741,-11.248485 0.37288,1.677951 1.61581,5.033853 4.84742,5.033853 2.4237,0 4.10165,-1.802244 4.10165,-3.977365 0,-2.237268 -1.74009,-4.039512 -4.53668,-4.039512 -2.73444,0 -5.15814,1.677951 -7.02253,4.101658 -1.05649,1.367219 -1.7401,2.920877 -2.23727,4.536682 l 0,-7.892584 -14.10722,0 0,1.118634 5.34459,0 0,28.77375 -5.34459,0 0,1.118634 z"
         id="path4185"
         inkscape:connector-curvature="0" />
      <path
         d="m 551.87056,98.877616 1.11863,0 12.42927,-30.265262 4.10166,0 0,-1.118634 -11.31064,0 0,1.118634 5.96605,0 -8.07902,19.63824 -9.13551,-19.63824 5.03385,0 0,-1.118634 -17.96029,0 0,1.118634 3.29376,0 14.54224,30.265262 z"
         id="path4187"
         inkscape:connector-curvature="0" />
      <path
         d="m 568.11725,82.968156 c 0,8.886925 7.51971,16.282338 16.77951,16.282338 9.19766,0 16.77951,-7.395413 16.77951,-16.282338 0,-8.700486 -7.58185,-16.220192 -16.77951,-16.220192 -9.2598,0 -16.77951,7.519706 -16.77951,16.220192 z m 9.19766,13.237168 0,-26.350043 c 2.23727,-1.242927 4.84741,-1.988683 7.58185,-1.988683 2.73444,0 5.34458,0.745756 7.644,2.050829 l 0,26.22575 c -2.29942,1.305073 -4.90956,1.988683 -7.644,1.988683 -2.73444,0 -5.34458,-0.68361 -7.58185,-1.926536 z"
         id="path4189"
         inkscape:connector-curvature="0" />
    </g>
  </g>
</svg>
