<svg version="1.1" xmlns="http://www.w3.org/2000/svg" xmlns:xlink="http://www.w3.org/1999/xlink" x="0px" y="0px" viewBox="0 0 442 200" xml:space="preserve">
<path style="fill:#2BA851" d="M426.4,20.5L15,1C-1.2,0.3,1.1,16.3,1.1,16.3l23.7,167.4c2.3,16,18.4,15.4,18.4,15.4l367-14.1 c16.1-0.6,17.7-16.7,17.7-16.7l13-130.8C442.5,21.3,426.4,20.5,426.4,20.5z"/>
<path style="fill:#ffffff" d="M92.7,27.8H59.8v30.4H43.2v21.3h16.6v44.8c0,27.3,7.2,35.5,35.2,35.5c6,0,12-0.8,18-1v-24.2 c-2.9,0-5.8,0.4-8.5,0.4c-7.1,0-11.8-1.7-11.8-9.7V79.6h20.3V58.3H92.7V27.8z M177.2,55.4c-29.6,0-54.2,22.1-54.2,52.9 c0,33.7,22.3,53.5,55,53.5c22.5,0,43.9-10.1,49.9-33.4h-30.8c-3.1,7.4-10.9,11.1-18.8,11.1c-14,0-21.9-9.1-22.5-22.9h73.8 C231.2,82.5,213.2,55.4,177.2,55.4z M155.9,98.2c1.9-12.2,9.7-20.6,21.3-20.6c11,0,19,9.3,19.6,20.6H155.9z M351.5,55.4 c-31.2,0-52.9,23.1-52.9,53.3c0,30.3,21.7,53.1,52.9,53.1c31.2,0,53.1-22.9,53.1-53.1C404.5,78.4,382.7,55.4,351.5,55.4z M351.5,136.6c-15.3,0-20-15.1-20-28c0-12.8,4.7-28.1,20-28.1s20.2,15.3,20.2,28.1C371.6,121.5,366.8,136.6,351.5,136.6z M247.3,45.6h32.9V20.5h-32.9V45.6z M247.3,156.6c0,7.2-3.7,9.1-10.4,9.3h-6.6v26.7h16.6c23.2,0,33.3-8.3,33.3-33.7V58.3h-32.9 V156.6z"/>
</svg>
